{
	"asset":{
		"generator":"Khronos glTF Blender I/O v5.1.20",
		"version":"2.0"
	},
	"extensionsUsed":[
		"KHR_materials_transmission"
	],
	"scene":0,
	"scenes":[
		{
			"name":"Scene",
			"nodes":[
				0
			]
		}
	],
	"nodes":[
		{
			"mesh":0,
			"name":"Cube.029",
			"rotation":[
				0,
				1,
				0,
				1.6292068494294654e-07
			],
			"translation":[
				-0.5719766616821289,
				4.418148994445801,
				0.013829529285430908
			]
		}
	],
	"animations":[
		{
			"channels":[
				{
					"sampler":0,
					"target":{
						"node":0,
						"path":"translation"
					}
				},
				{
					"sampler":1,
					"target":{
						"node":0,
						"path":"rotation"
					}
				},
				{
					"sampler":2,
					"target":{
						"node":0,
						"path":"scale"
					}
				}
			],
			"name":"Animation",
			"samplers":[
				{
					"input":76,
					"interpolation":"STEP",
					"output":77
				},
				{
					"input":78,
					"interpolation":"LINEAR",
					"output":79
				},
				{
					"input":76,
					"interpolation":"STEP",
					"output":80
				}
			]
		}
	],
	"materials":[
		{
			"doubleSided":true,
			"name":"Material.003",
			"pbrMetallicRoughness":{
				"baseColorFactor":[
					0.009039366617798805,
					0.014548719860613346,
					0.102479949593544,
					1
				],
				"metallicFactor":0.30000001192092896,
				"roughnessFactor":0.4000000059604645
			}
		},
		{
			"doubleSided":true,
			"name":"Material.004",
			"pbrMetallicRoughness":{
				"baseColorFactor":[
					0.010022588074207306,
					0.010022588074207306,
					0.010022588074207306,
					1
				],
				"metallicFactor":0.3227272629737854,
				"roughnessFactor":0.3590909242630005
			}
		},
		{
			"doubleSided":true,
			"extensions":{
				"KHR_materials_transmission":{
					"transmissionFactor":1
				}
			},
			"name":"Material.006",
			"pbrMetallicRoughness":{
				"baseColorFactor":[
					0.2394198775291443,
					0.429915189743042,
					1,
					1
				],
				"metallicFactor":0,
				"roughnessFactor":0.10000000149011612
			}
		},
		{
			"doubleSided":true,
			"extensions":{
				"KHR_materials_transmission":{
					"transmissionFactor":1
				}
			},
			"name":"Material.007",
			"pbrMetallicRoughness":{
				"baseColorFactor":[
					1,
					0,
					0.0018216411117464304,
					1
				],
				"metallicFactor":0,
				"roughnessFactor":0.24090909957885742
			}
		},
		{
			"doubleSided":true,
			"extensions":{
				"KHR_materials_transmission":{
					"transmissionFactor":0.718181848526001
				}
			},
			"name":"Material",
			"pbrMetallicRoughness":{
				"baseColorFactor":[
					0.8000074625015259,
					0.12168683111667633,
					0.01512887142598629,
					1
				],
				"metallicFactor":0
			}
		},
		{
			"doubleSided":true,
			"name":"Material.011",
			"pbrMetallicRoughness":{
				"baseColorFactor":[
					1,
					0.956388533115387,
					0,
					1
				],
				"metallicFactor":0.2545454502105713,
				"roughnessFactor":0.30909091234207153
			}
		},
		{
			"doubleSided":true,
			"name":"Material.005",
			"pbrMetallicRoughness":{
				"baseColorFactor":[
					0.07323738932609558,
					0.07323738932609558,
					0.07323738932609558,
					1
				],
				"metallicFactor":0.33636361360549927,
				"roughnessFactor":0.4000000059604645
			}
		},
		{
			"doubleSided":true,
			"name":"Material.002",
			"pbrMetallicRoughness":{
				"baseColorFactor":[
					0.6038468480110168,
					0.6038468480110168,
					0.6038468480110168,
					1
				],
				"metallicFactor":0.29999998211860657,
				"roughnessFactor":0.44090908765792847
			}
		},
		{
			"doubleSided":true,
			"emissiveFactor":[
				0.003487280231253498,
				0.003487280231253498,
				0.003487280231253498
			],
			"extensions":{
				"KHR_materials_transmission":{
					"transmissionFactor":1
				}
			},
			"name":"Material.001",
			"pbrMetallicRoughness":{
				"baseColorFactor":[
					0.800000011920929,
					0.800000011920929,
					0.800000011920929,
					1
				],
				"metallicFactor":0,
				"roughnessFactor":0.009999999776482582
			}
		},
		{
			"doubleSided":true,
			"name":"Material.010",
			"pbrMetallicRoughness":{
				"baseColorFactor":[
					0.1328667551279068,
					0.1328667551279068,
					0.1328667551279068,
					1
				],
				"metallicFactor":0.41363635659217834,
				"roughnessFactor":0.2545454502105713
			}
		},
		{
			"doubleSided":true,
			"extensions":{
				"KHR_materials_transmission":{
					"transmissionFactor":0.8727272748947144
				}
			},
			"name":"Material.008",
			"pbrMetallicRoughness":{
				"baseColorFactor":[
					0.09597131609916687,
					0.4024440050125122,
					0.5108323693275452,
					1
				],
				"metallicFactor":0
			}
		},
		{
			"doubleSided":true,
			"name":"Material.012",
			"pbrMetallicRoughness":{
				"baseColorFactor":[
					0.44797706604003906,
					0.44797706604003906,
					0.44797706604003906,
					1
				],
				"metallicFactor":0.41363635659217834,
				"roughnessFactor":0.2545454502105713
			}
		},
		{
			"doubleSided":true,
			"name":"Material.014",
			"pbrMetallicRoughness":{
				"baseColorFactor":[
					0.015959328040480614,
					0.02708432450890541,
					0.21713215112686157,
					1
				],
				"metallicFactor":0.30000001192092896,
				"roughnessFactor":0.4000000059604645
			}
		},
		{
			"doubleSided":true,
			"name":"Material.027",
			"pbrMetallicRoughness":{
				"baseColorFactor":[
					0.1328667551279068,
					0.1328667551279068,
					0.1328667551279068,
					1
				],
				"metallicFactor":0.41363635659217834,
				"roughnessFactor":0.2545454502105713
			}
		},
		{
			"doubleSided":true,
			"name":"Material.028",
			"pbrMetallicRoughness":{
				"baseColorFactor":[
					0,
					0,
					0,
					1
				],
				"metallicFactor":0.4318181872367859,
				"roughnessFactor":0.6136363744735718
			}
		},
		{
			"doubleSided":true,
			"name":"Material.029",
			"pbrMetallicRoughness":{
				"baseColorFactor":[
					0.010022588074207306,
					0.010022588074207306,
					0.010022588074207306,
					1
				],
				"metallicFactor":0.3227272629737854,
				"roughnessFactor":0.3590909242630005
			}
		},
		{
			"doubleSided":true,
			"name":"Material.030",
			"pbrMetallicRoughness":{
				"baseColorFactor":[
					0.07323738932609558,
					0.07323738932609558,
					0.07323738932609558,
					1
				],
				"metallicFactor":0.33636361360549927,
				"roughnessFactor":0.4000000059604645
			}
		},
		{
			"alphaMode":"BLEND",
			"doubleSided":true,
			"emissiveFactor":[
				0.003487280231253498,
				0.003487280231253498,
				0.003487280231253498
			],
			"extensions":{
				"KHR_materials_transmission":{
					"transmissionFactor":1
				}
			},
			"name":"Material.031",
			"pbrMetallicRoughness":{
				"baseColorFactor":[
					0.800000011920929,
					0.800000011920929,
					0.800000011920929,
					0.3954545259475708
				],
				"metallicFactor":0,
				"roughnessFactor":0.009999999776482582
			}
		}
	],
	"meshes":[
		{
			"name":"Cube.070",
			"primitives":[
				{
					"attributes":{
						"POSITION":0,
						"NORMAL":1,
						"TEXCOORD_0":2
					},
					"indices":3,
					"material":0
				},
				{
					"attributes":{
						"POSITION":4,
						"NORMAL":5,
						"TEXCOORD_0":6
					},
					"indices":7,
					"material":1
				},
				{
					"attributes":{
						"POSITION":8,
						"NORMAL":9,
						"TEXCOORD_0":10
					},
					"indices":11,
					"material":2
				},
				{
					"attributes":{
						"POSITION":12,
						"NORMAL":13,
						"TEXCOORD_0":14
					},
					"indices":15,
					"material":3
				},
				{
					"attributes":{
						"POSITION":16,
						"NORMAL":17,
						"TEXCOORD_0":18
					},
					"indices":19,
					"material":4
				},
				{
					"attributes":{
						"POSITION":20,
						"NORMAL":21,
						"TEXCOORD_0":22
					},
					"indices":23,
					"material":5
				},
				{
					"attributes":{
						"POSITION":24,
						"NORMAL":25,
						"TEXCOORD_0":26
					},
					"indices":27,
					"material":6
				},
				{
					"attributes":{
						"POSITION":28,
						"NORMAL":29,
						"TEXCOORD_0":30
					},
					"indices":31,
					"material":7
				},
				{
					"attributes":{
						"POSITION":32,
						"NORMAL":33,
						"TEXCOORD_0":34
					},
					"indices":35,
					"material":8
				},
				{
					"attributes":{
						"POSITION":36,
						"NORMAL":37,
						"TEXCOORD_0":38
					},
					"indices":39
				},
				{
					"attributes":{
						"POSITION":40,
						"NORMAL":41,
						"TEXCOORD_0":42
					},
					"indices":43,
					"material":9
				},
				{
					"attributes":{
						"POSITION":44,
						"NORMAL":45,
						"TEXCOORD_0":46
					},
					"indices":47,
					"material":10
				},
				{
					"attributes":{
						"POSITION":48,
						"NORMAL":49,
						"TEXCOORD_0":50
					},
					"indices":51,
					"material":11
				},
				{
					"attributes":{
						"POSITION":52,
						"NORMAL":53,
						"TEXCOORD_0":54
					},
					"indices":55,
					"material":12
				},
				{
					"attributes":{
						"POSITION":56,
						"NORMAL":57,
						"TEXCOORD_0":58
					},
					"indices":59,
					"material":13
				},
				{
					"attributes":{
						"POSITION":60,
						"NORMAL":61,
						"TEXCOORD_0":62
					},
					"indices":63,
					"material":14
				},
				{
					"attributes":{
						"POSITION":64,
						"NORMAL":65,
						"TEXCOORD_0":66
					},
					"indices":67,
					"material":15
				},
				{
					"attributes":{
						"POSITION":68,
						"NORMAL":69,
						"TEXCOORD_0":70
					},
					"indices":71,
					"material":16
				},
				{
					"attributes":{
						"POSITION":72,
						"NORMAL":73,
						"TEXCOORD_0":74
					},
					"indices":75,
					"material":17
				}
			]
		}
	],
	"accessors":[
		{
			"bufferView":0,
			"componentType":5126,
			"count":131599,
			"max":[
				1.2013108730316162,
				0.11211611330509186,
				0.7218364477157593
			],
			"min":[
				-2.270064115524292,
				-1.8764187097549438,
				-0.7218362092971802
			],
			"type":"VEC3"
		},
		{
			"bufferView":1,
			"componentType":5126,
			"count":131599,
			"type":"VEC3"
		},
		{
			"bufferView":2,
			"componentType":5126,
			"count":131599,
			"type":"VEC2"
		},
		{
			"bufferView":3,
			"componentType":5125,
			"count":252594,
			"type":"SCALAR"
		},
		{
			"bufferView":4,
			"componentType":5126,
			"count":19716,
			"max":[
				1.3951606750488281,
				0.30882710218429565,
				1.006903886795044
			],
			"min":[
				-2.440326690673828,
				-1.8552124500274658,
				-1.006913423538208
			],
			"type":"VEC3"
		},
		{
			"bufferView":5,
			"componentType":5126,
			"count":19716,
			"type":"VEC3"
		},
		{
			"bufferView":6,
			"componentType":5126,
			"count":19716,
			"type":"VEC2"
		},
		{
			"bufferView":7,
			"componentType":5123,
			"count":90396,
			"type":"SCALAR"
		},
		{
			"bufferView":8,
			"componentType":5126,
			"count":768,
			"max":[
				-0.028609856963157654,
				0.21400822699069977,
				0.0031789173372089863
			],
			"min":[
				-0.28925445675849915,
				0.1330089420080185,
				-0.6213375329971313
			],
			"type":"VEC3"
		},
		{
			"bufferView":9,
			"componentType":5126,
			"count":768,
			"type":"VEC3"
		},
		{
			"bufferView":10,
			"componentType":5126,
			"count":768,
			"type":"VEC2"
		},
		{
			"bufferView":11,
			"componentType":5123,
			"count":1128,
			"type":"SCALAR"
		},
		{
			"bufferView":12,
			"componentType":5126,
			"count":979,
			"max":[
				1.3955013751983643,
				0.21400822699069977,
				0.7218354344367981
			],
			"min":[
				-0.28925424814224243,
				-1.4910435676574707,
				-0.7218363881111145
			],
			"type":"VEC3"
		},
		{
			"bufferView":13,
			"componentType":5126,
			"count":979,
			"type":"VEC3"
		},
		{
			"bufferView":14,
			"componentType":5126,
			"count":979,
			"type":"VEC2"
		},
		{
			"bufferView":15,
			"componentType":5123,
			"count":2256,
			"type":"SCALAR"
		},
		{
			"bufferView":16,
			"componentType":5126,
			"count":28,
			"max":[
				1.2013108730316162,
				-1.1573190689086914,
				0.7218364477157593
			],
			"min":[
				-1.8885676860809326,
				-1.2512892484664917,
				-0.7218362092971802
			],
			"type":"VEC3"
		},
		{
			"bufferView":17,
			"componentType":5126,
			"count":28,
			"type":"VEC3"
		},
		{
			"bufferView":18,
			"componentType":5126,
			"count":28,
			"type":"VEC2"
		},
		{
			"bufferView":19,
			"componentType":5123,
			"count":48,
			"type":"SCALAR"
		},
		{
			"bufferView":20,
			"componentType":5126,
			"count":2931,
			"max":[
				1.2013108730316162,
				-0.20871537923812866,
				0.7218364477157593
			],
			"min":[
				-2.175143003463745,
				-1.4328441619873047,
				-0.7218362092971802
			],
			"type":"VEC3"
		},
		{
			"bufferView":21,
			"componentType":5126,
			"count":2931,
			"type":"VEC3"
		},
		{
			"bufferView":22,
			"componentType":5126,
			"count":2931,
			"type":"VEC2"
		},
		{
			"bufferView":23,
			"componentType":5123,
			"count":14394,
			"type":"SCALAR"
		},
		{
			"bufferView":24,
			"componentType":5126,
			"count":4059,
			"max":[
				1.4874341487884521,
				-1.029975414276123,
				0.877897322177887
			],
			"min":[
				-2.2829811573028564,
				-2.041775941848755,
				-0.8778976202011108
			],
			"type":"VEC3"
		},
		{
			"bufferView":25,
			"componentType":5126,
			"count":4059,
			"type":"VEC3"
		},
		{
			"bufferView":26,
			"componentType":5126,
			"count":4059,
			"type":"VEC2"
		},
		{
			"bufferView":27,
			"componentType":5123,
			"count":21450,
			"type":"SCALAR"
		},
		{
			"bufferView":28,
			"componentType":5126,
			"count":14173,
			"max":[
				1.3600945472717285,
				-0.041969120502471924,
				0.9024878144264221
			],
			"min":[
				-2.270064115524292,
				-2.050449848175049,
				-0.9024871587753296
			],
			"type":"VEC3"
		},
		{
			"bufferView":29,
			"componentType":5126,
			"count":14173,
			"type":"VEC3"
		},
		{
			"bufferView":30,
			"componentType":5126,
			"count":14173,
			"type":"VEC2"
		},
		{
			"bufferView":31,
			"componentType":5123,
			"count":68892,
			"type":"SCALAR"
		},
		{
			"bufferView":32,
			"componentType":5126,
			"count":416,
			"max":[
				1.201317548751831,
				-0.22781145572662354,
				0.46016618609428406
			],
			"min":[
				0.9157492518424988,
				-1.0167039632797241,
				-0.4600505530834198
			],
			"type":"VEC3"
		},
		{
			"bufferView":33,
			"componentType":5126,
			"count":416,
			"type":"VEC3"
		},
		{
			"bufferView":34,
			"componentType":5126,
			"count":416,
			"type":"VEC2"
		},
		{
			"bufferView":35,
			"componentType":5123,
			"count":660,
			"type":"SCALAR"
		},
		{
			"bufferView":36,
			"componentType":5126,
			"count":324,
			"max":[
				-1.0508767366409302,
				-0.6331302523612976,
				0.04906307905912399
			],
			"min":[
				-1.1958725452423096,
				-0.7969114780426025,
				-0.021403320133686066
			],
			"type":"VEC3"
		},
		{
			"bufferView":37,
			"componentType":5126,
			"count":324,
			"type":"VEC3"
		},
		{
			"bufferView":38,
			"componentType":5126,
			"count":324,
			"type":"VEC2"
		},
		{
			"bufferView":39,
			"componentType":5123,
			"count":1524,
			"type":"SCALAR"
		},
		{
			"bufferView":40,
			"componentType":5126,
			"count":1245,
			"max":[
				-1.9640711545944214,
				-1.4335911273956299,
				0.3649600148200989
			],
			"min":[
				-2.3208320140838623,
				-1.877443552017212,
				-0.3649587631225586
			],
			"type":"VEC3"
		},
		{
			"bufferView":41,
			"componentType":5126,
			"count":1245,
			"type":"VEC3"
		},
		{
			"bufferView":42,
			"componentType":5126,
			"count":1245,
			"type":"VEC2"
		},
		{
			"bufferView":43,
			"componentType":5123,
			"count":5832,
			"type":"SCALAR"
		},
		{
			"bufferView":44,
			"componentType":5126,
			"count":325,
			"max":[
				-1.9792473316192627,
				-1.1132367849349976,
				0.721836507320404
			],
			"min":[
				-2.2829811573028564,
				-1.4935829639434814,
				-0.721835196018219
			],
			"type":"VEC3"
		},
		{
			"bufferView":45,
			"componentType":5126,
			"count":325,
			"type":"VEC3"
		},
		{
			"bufferView":46,
			"componentType":5126,
			"count":325,
			"type":"VEC2"
		},
		{
			"bufferView":47,
			"componentType":5123,
			"count":1704,
			"type":"SCALAR"
		},
		{
			"bufferView":48,
			"componentType":5126,
			"count":19900,
			"max":[
				1.201179027557373,
				-1.8774322271347046,
				0.33214837312698364
			],
			"min":[
				-1.8862881660461426,
				-1.9955370426177979,
				-0.3302607834339142
			],
			"type":"VEC3"
		},
		{
			"bufferView":49,
			"componentType":5126,
			"count":19900,
			"type":"VEC3"
		},
		{
			"bufferView":50,
			"componentType":5126,
			"count":19900,
			"type":"VEC2"
		},
		{
			"bufferView":51,
			"componentType":5123,
			"count":34692,
			"type":"SCALAR"
		},
		{
			"bufferView":52,
			"componentType":5126,
			"count":16843,
			"max":[
				-0.262384831905365,
				-0.5098927617073059,
				0.346393883228302
			],
			"min":[
				-0.6755058765411377,
				-1.0303908586502075,
				-0.35343924164772034
			],
			"type":"VEC3"
		},
		{
			"bufferView":53,
			"componentType":5126,
			"count":16843,
			"type":"VEC3"
		},
		{
			"bufferView":54,
			"componentType":5126,
			"count":16843,
			"type":"VEC2"
		},
		{
			"bufferView":55,
			"componentType":5123,
			"count":28242,
			"type":"SCALAR"
		},
		{
			"bufferView":56,
			"componentType":5126,
			"count":5636,
			"max":[
				0.9330167770385742,
				-1.4537625312805176,
				1.1232417821884155
			],
			"min":[
				-1.6303861141204834,
				-2.480590343475342,
				-1.095582127571106
			],
			"type":"VEC3"
		},
		{
			"bufferView":57,
			"componentType":5126,
			"count":5636,
			"type":"VEC3"
		},
		{
			"bufferView":58,
			"componentType":5126,
			"count":5636,
			"type":"VEC2"
		},
		{
			"bufferView":59,
			"componentType":5123,
			"count":31488,
			"type":"SCALAR"
		},
		{
			"bufferView":60,
			"componentType":5126,
			"count":136672,
			"max":[
				1.0257008075714111,
				-1.3610785007476807,
				1.169603943824768
			],
			"min":[
				-1.7230701446533203,
				-2.5732743740081787,
				-1.1419442892074585
			],
			"type":"VEC3"
		},
		{
			"bufferView":61,
			"componentType":5126,
			"count":136672,
			"type":"VEC3"
		},
		{
			"bufferView":62,
			"componentType":5126,
			"count":136672,
			"type":"VEC2"
		},
		{
			"bufferView":63,
			"componentType":5125,
			"count":635904,
			"type":"SCALAR"
		},
		{
			"bufferView":64,
			"componentType":5126,
			"count":780,
			"max":[
				0.5517230033874512,
				-1.8350565433502197,
				1.0529096126556396
			],
			"min":[
				-1.24909245967865,
				-2.099296808242798,
				-1.0252501964569092
			],
			"type":"VEC3"
		},
		{
			"bufferView":65,
			"componentType":5126,
			"count":780,
			"type":"VEC3"
		},
		{
			"bufferView":66,
			"componentType":5126,
			"count":780,
			"type":"VEC2"
		},
		{
			"bufferView":67,
			"componentType":5123,
			"count":3024,
			"type":"SCALAR"
		},
		{
			"bufferView":68,
			"componentType":5126,
			"count":4508,
			"max":[
				0.9262483716011047,
				-1.5286468267440796,
				1.1414704322814941
			],
			"min":[
				-1.6236176490783691,
				-2.493218183517456,
				-1.1138108968734741
			],
			"type":"VEC3"
		},
		{
			"bufferView":69,
			"componentType":5126,
			"count":4508,
			"type":"VEC3"
		},
		{
			"bufferView":70,
			"componentType":5126,
			"count":4508,
			"type":"VEC2"
		},
		{
			"bufferView":71,
			"componentType":5123,
			"count":22992,
			"type":"SCALAR"
		},
		{
			"bufferView":72,
			"componentType":5126,
			"count":36586,
			"max":[
				-0.8292547464370728,
				-0.07360714673995972,
				0.7153686285018921
			],
			"min":[
				-1.546097993850708,
				-0.9249536395072937,
				-0.7153679132461548
			],
			"type":"VEC3"
		},
		{
			"bufferView":73,
			"componentType":5126,
			"count":36586,
			"type":"VEC3"
		},
		{
			"bufferView":74,
			"componentType":5126,
			"count":36586,
			"type":"VEC2"
		},
		{
			"bufferView":75,
			"componentType":5123,
			"count":99648,
			"type":"SCALAR"
		},
		{
			"bufferView":76,
			"componentType":5126,
			"count":2,
			"max":[
				8.333333333333334
			],
			"min":[
				0
			],
			"type":"SCALAR"
		},
		{
			"bufferView":77,
			"componentType":5126,
			"count":2,
			"type":"VEC3"
		},
		{
			"bufferView":78,
			"componentType":5126,
			"count":201,
			"max":[
				8.333333333333334
			],
			"min":[
				0
			],
			"type":"SCALAR"
		},
		{
			"bufferView":79,
			"componentType":5126,
			"count":201,
			"type":"VEC4"
		},
		{
			"bufferView":80,
			"componentType":5126,
			"count":2,
			"type":"VEC3"
		}
	],
	"bufferViews":[
		{
			"buffer":0,
			"byteLength":1579188,
			"byteOffset":0,
			"target":34962
		},
		{
			"buffer":0,
			"byteLength":1579188,
			"byteOffset":1579188,
			"target":34962
		},
		{
			"buffer":0,
			"byteLength":1052792,
			"byteOffset":3158376,
			"target":34962
		},
		{
			"buffer":0,
			"byteLength":1010376,
			"byteOffset":4211168,
			"target":34963
		},
		{
			"buffer":0,
			"byteLength":236592,
			"byteOffset":5221544,
			"target":34962
		},
		{
			"buffer":0,
			"byteLength":236592,
			"byteOffset":5458136,
			"target":34962
		},
		{
			"buffer":0,
			"byteLength":157728,
			"byteOffset":5694728,
			"target":34962
		},
		{
			"buffer":0,
			"byteLength":180792,
			"byteOffset":5852456,
			"target":34963
		},
		{
			"buffer":0,
			"byteLength":9216,
			"byteOffset":6033248,
			"target":34962
		},
		{
			"buffer":0,
			"byteLength":9216,
			"byteOffset":6042464,
			"target":34962
		},
		{
			"buffer":0,
			"byteLength":6144,
			"byteOffset":6051680,
			"target":34962
		},
		{
			"buffer":0,
			"byteLength":2256,
			"byteOffset":6057824,
			"target":34963
		},
		{
			"buffer":0,
			"byteLength":11748,
			"byteOffset":6060080,
			"target":34962
		},
		{
			"buffer":0,
			"byteLength":11748,
			"byteOffset":6071828,
			"target":34962
		},
		{
			"buffer":0,
			"byteLength":7832,
			"byteOffset":6083576,
			"target":34962
		},
		{
			"buffer":0,
			"byteLength":4512,
			"byteOffset":6091408,
			"target":34963
		},
		{
			"buffer":0,
			"byteLength":336,
			"byteOffset":6095920,
			"target":34962
		},
		{
			"buffer":0,
			"byteLength":336,
			"byteOffset":6096256,
			"target":34962
		},
		{
			"buffer":0,
			"byteLength":224,
			"byteOffset":6096592,
			"target":34962
		},
		{
			"buffer":0,
			"byteLength":96,
			"byteOffset":6096816,
			"target":34963
		},
		{
			"buffer":0,
			"byteLength":35172,
			"byteOffset":6096912,
			"target":34962
		},
		{
			"buffer":0,
			"byteLength":35172,
			"byteOffset":6132084,
			"target":34962
		},
		{
			"buffer":0,
			"byteLength":23448,
			"byteOffset":6167256,
			"target":34962
		},
		{
			"buffer":0,
			"byteLength":28788,
			"byteOffset":6190704,
			"target":34963
		},
		{
			"buffer":0,
			"byteLength":48708,
			"byteOffset":6219492,
			"target":34962
		},
		{
			"buffer":0,
			"byteLength":48708,
			"byteOffset":6268200,
			"target":34962
		},
		{
			"buffer":0,
			"byteLength":32472,
			"byteOffset":6316908,
			"target":34962
		},
		{
			"buffer":0,
			"byteLength":42900,
			"byteOffset":6349380,
			"target":34963
		},
		{
			"buffer":0,
			"byteLength":170076,
			"byteOffset":6392280,
			"target":34962
		},
		{
			"buffer":0,
			"byteLength":170076,
			"byteOffset":6562356,
			"target":34962
		},
		{
			"buffer":0,
			"byteLength":113384,
			"byteOffset":6732432,
			"target":34962
		},
		{
			"buffer":0,
			"byteLength":137784,
			"byteOffset":6845816,
			"target":34963
		},
		{
			"buffer":0,
			"byteLength":4992,
			"byteOffset":6983600,
			"target":34962
		},
		{
			"buffer":0,
			"byteLength":4992,
			"byteOffset":6988592,
			"target":34962
		},
		{
			"buffer":0,
			"byteLength":3328,
			"byteOffset":6993584,
			"target":34962
		},
		{
			"buffer":0,
			"byteLength":1320,
			"byteOffset":6996912,
			"target":34963
		},
		{
			"buffer":0,
			"byteLength":3888,
			"byteOffset":6998232,
			"target":34962
		},
		{
			"buffer":0,
			"byteLength":3888,
			"byteOffset":7002120,
			"target":34962
		},
		{
			"buffer":0,
			"byteLength":2592,
			"byteOffset":7006008,
			"target":34962
		},
		{
			"buffer":0,
			"byteLength":3048,
			"byteOffset":7008600,
			"target":34963
		},
		{
			"buffer":0,
			"byteLength":14940,
			"byteOffset":7011648,
			"target":34962
		},
		{
			"buffer":0,
			"byteLength":14940,
			"byteOffset":7026588,
			"target":34962
		},
		{
			"buffer":0,
			"byteLength":9960,
			"byteOffset":7041528,
			"target":34962
		},
		{
			"buffer":0,
			"byteLength":11664,
			"byteOffset":7051488,
			"target":34963
		},
		{
			"buffer":0,
			"byteLength":3900,
			"byteOffset":7063152,
			"target":34962
		},
		{
			"buffer":0,
			"byteLength":3900,
			"byteOffset":7067052,
			"target":34962
		},
		{
			"buffer":0,
			"byteLength":2600,
			"byteOffset":7070952,
			"target":34962
		},
		{
			"buffer":0,
			"byteLength":3408,
			"byteOffset":7073552,
			"target":34963
		},
		{
			"buffer":0,
			"byteLength":238800,
			"byteOffset":7076960,
			"target":34962
		},
		{
			"buffer":0,
			"byteLength":238800,
			"byteOffset":7315760,
			"target":34962
		},
		{
			"buffer":0,
			"byteLength":159200,
			"byteOffset":7554560,
			"target":34962
		},
		{
			"buffer":0,
			"byteLength":69384,
			"byteOffset":7713760,
			"target":34963
		},
		{
			"buffer":0,
			"byteLength":202116,
			"byteOffset":7783144,
			"target":34962
		},
		{
			"buffer":0,
			"byteLength":202116,
			"byteOffset":7985260,
			"target":34962
		},
		{
			"buffer":0,
			"byteLength":134744,
			"byteOffset":8187376,
			"target":34962
		},
		{
			"buffer":0,
			"byteLength":56484,
			"byteOffset":8322120,
			"target":34963
		},
		{
			"buffer":0,
			"byteLength":67632,
			"byteOffset":8378604,
			"target":34962
		},
		{
			"buffer":0,
			"byteLength":67632,
			"byteOffset":8446236,
			"target":34962
		},
		{
			"buffer":0,
			"byteLength":45088,
			"byteOffset":8513868,
			"target":34962
		},
		{
			"buffer":0,
			"byteLength":62976,
			"byteOffset":8558956,
			"target":34963
		},
		{
			"buffer":0,
			"byteLength":1640064,
			"byteOffset":8621932,
			"target":34962
		},
		{
			"buffer":0,
			"byteLength":1640064,
			"byteOffset":10261996,
			"target":34962
		},
		{
			"buffer":0,
			"byteLength":1093376,
			"byteOffset":11902060,
			"target":34962
		},
		{
			"buffer":0,
			"byteLength":2543616,
			"byteOffset":12995436,
			"target":34963
		},
		{
			"buffer":0,
			"byteLength":9360,
			"byteOffset":15539052,
			"target":34962
		},
		{
			"buffer":0,
			"byteLength":9360,
			"byteOffset":15548412,
			"target":34962
		},
		{
			"buffer":0,
			"byteLength":6240,
			"byteOffset":15557772,
			"target":34962
		},
		{
			"buffer":0,
			"byteLength":6048,
			"byteOffset":15564012,
			"target":34963
		},
		{
			"buffer":0,
			"byteLength":54096,
			"byteOffset":15570060,
			"target":34962
		},
		{
			"buffer":0,
			"byteLength":54096,
			"byteOffset":15624156,
			"target":34962
		},
		{
			"buffer":0,
			"byteLength":36064,
			"byteOffset":15678252,
			"target":34962
		},
		{
			"buffer":0,
			"byteLength":45984,
			"byteOffset":15714316,
			"target":34963
		},
		{
			"buffer":0,
			"byteLength":439032,
			"byteOffset":15760300,
			"target":34962
		},
		{
			"buffer":0,
			"byteLength":439032,
			"byteOffset":16199332,
			"target":34962
		},
		{
			"buffer":0,
			"byteLength":292688,
			"byteOffset":16638364,
			"target":34962
		},
		{
			"buffer":0,
			"byteLength":199296,
			"byteOffset":16931052,
			"target":34963
		},
		{
			"buffer":0,
			"byteLength":8,
			"byteOffset":17130348
		},
		{
			"buffer":0,
			"byteLength":24,
			"byteOffset":17130356
		},
		{
			"buffer":0,
			"byteLength":804,
			"byteOffset":17130380
		},
		{
			"buffer":0,
			"byteLength":3216,
			"byteOffset":17131184
		},
		{
			"buffer":0,
			"byteLength":24,
			"byteOffset":17134400
		}
	],
	"buffers":[
		{
			"byteLength":17134424,
			"uri":"Car.bin"
		}
	]
}
