{
	"asset":{
		"generator":"Khronos glTF Blender I/O v5.1.20",
		"version":"2.0"
	},
	"extensionsUsed":[
		"KHR_materials_transmission"
	],
	"scene":0,
	"scenes":[
		{
			"name":"Scene",
			"nodes":[
				0
			]
		}
	],
	"nodes":[
		{
			"mesh":0,
			"name":"Cube.029",
			"rotation":[
				0,
				1,
				0,
				1.6292068494294654e-07
			],
			"translation":[
				-0.5719766616821289,
				4.418148994445801,
				0.013829529285430908
			]
		}
	],
	"animations":[
		{
			"channels":[
				{
					"sampler":0,
					"target":{
						"node":0,
						"path":"translation"
					}
				},
				{
					"sampler":1,
					"target":{
						"node":0,
						"path":"rotation"
					}
				},
				{
					"sampler":2,
					"target":{
						"node":0,
						"path":"scale"
					}
				}
			],
			"name":"Animation",
			"samplers":[
				{
					"input":56,
					"interpolation":"STEP",
					"output":57
				},
				{
					"input":58,
					"interpolation":"LINEAR",
					"output":59
				},
				{
					"input":56,
					"interpolation":"STEP",
					"output":60
				}
			]
		}
	],
	"materials":[
		{
			"doubleSided":true,
			"name":"Material.003",
			"pbrMetallicRoughness":{
				"baseColorFactor":[
					0.009039366617798805,
					0.014548719860613346,
					0.102479949593544,
					1
				],
				"metallicFactor":0.30000001192092896,
				"roughnessFactor":0.4000000059604645
			}
		},
		{
			"doubleSided":true,
			"name":"Material.004",
			"pbrMetallicRoughness":{
				"baseColorFactor":[
					0.010022588074207306,
					0.010022588074207306,
					0.010022588074207306,
					1
				],
				"metallicFactor":0.3227272629737854,
				"roughnessFactor":0.3590909242630005
			}
		},
		{
			"doubleSided":true,
			"extensions":{
				"KHR_materials_transmission":{
					"transmissionFactor":1
				}
			},
			"name":"Material.007",
			"pbrMetallicRoughness":{
				"baseColorFactor":[
					1,
					0,
					0.0018216411117464304,
					1
				],
				"metallicFactor":0,
				"roughnessFactor":0.24090909957885742
			}
		},
		{
			"doubleSided":true,
			"extensions":{
				"KHR_materials_transmission":{
					"transmissionFactor":0.718181848526001
				}
			},
			"name":"Material",
			"pbrMetallicRoughness":{
				"baseColorFactor":[
					0.8000074625015259,
					0.12168683111667633,
					0.01512887142598629,
					1
				],
				"metallicFactor":0
			}
		},
		{
			"doubleSided":true,
			"name":"Material.011",
			"pbrMetallicRoughness":{
				"baseColorFactor":[
					1,
					0.956388533115387,
					0,
					1
				],
				"metallicFactor":0.2545454502105713,
				"roughnessFactor":0.30909091234207153
			}
		},
		{
			"doubleSided":true,
			"name":"Material.005",
			"pbrMetallicRoughness":{
				"baseColorFactor":[
					0.07323738932609558,
					0.07323738932609558,
					0.07323738932609558,
					1
				],
				"metallicFactor":0.33636361360549927,
				"roughnessFactor":0.4000000059604645
			}
		},
		{
			"doubleSided":true,
			"name":"Material.002",
			"pbrMetallicRoughness":{
				"baseColorFactor":[
					0.6038468480110168,
					0.6038468480110168,
					0.6038468480110168,
					1
				],
				"metallicFactor":0.29999998211860657,
				"roughnessFactor":0.44090908765792847
			}
		},
		{
			"doubleSided":true,
			"emissiveFactor":[
				0.003487280231253498,
				0.003487280231253498,
				0.003487280231253498
			],
			"extensions":{
				"KHR_materials_transmission":{
					"transmissionFactor":1
				}
			},
			"name":"Material.001",
			"pbrMetallicRoughness":{
				"baseColorFactor":[
					0.800000011920929,
					0.800000011920929,
					0.800000011920929,
					1
				],
				"metallicFactor":0,
				"roughnessFactor":0.009999999776482582
			}
		},
		{
			"doubleSided":true,
			"name":"Material.010",
			"pbrMetallicRoughness":{
				"baseColorFactor":[
					0.1328667551279068,
					0.1328667551279068,
					0.1328667551279068,
					1
				],
				"metallicFactor":0.41363635659217834,
				"roughnessFactor":0.2545454502105713
			}
		},
		{
			"doubleSided":true,
			"extensions":{
				"KHR_materials_transmission":{
					"transmissionFactor":0.8727272748947144
				}
			},
			"name":"Material.008",
			"pbrMetallicRoughness":{
				"baseColorFactor":[
					0.09597131609916687,
					0.4024440050125122,
					0.5108323693275452,
					1
				],
				"metallicFactor":0
			}
		},
		{
			"doubleSided":true,
			"name":"Material.012",
			"pbrMetallicRoughness":{
				"baseColorFactor":[
					0.44797706604003906,
					0.44797706604003906,
					0.44797706604003906,
					1
				],
				"metallicFactor":0.41363635659217834,
				"roughnessFactor":0.2545454502105713
			}
		},
		{
			"doubleSided":true,
			"name":"Material.014",
			"pbrMetallicRoughness":{
				"baseColorFactor":[
					0.015959328040480614,
					0.02708432450890541,
					0.21713215112686157,
					1
				],
				"metallicFactor":0.30000001192092896,
				"roughnessFactor":0.4000000059604645
			}
		},
		{
			"doubleSided":true,
			"emissiveFactor":[
				0.003487280231253498,
				0.003487280231253498,
				0.003487280231253498
			],
			"extensions":{
				"KHR_materials_transmission":{
					"transmissionFactor":1
				}
			},
			"name":"Material.031",
			"pbrMetallicRoughness":{
				"baseColorFactor":[
					0.800000011920929,
					0.800000011920929,
					0.800000011920929,
					1
				],
				"metallicFactor":0,
				"roughnessFactor":0.009999999776482582
			}
		}
	],
	"meshes":[
		{
			"name":"Cube.070",
			"primitives":[
				{
					"attributes":{
						"POSITION":0,
						"NORMAL":1,
						"TEXCOORD_0":2
					},
					"indices":3,
					"material":0
				},
				{
					"attributes":{
						"POSITION":4,
						"NORMAL":5,
						"TEXCOORD_0":6
					},
					"indices":7,
					"material":1
				},
				{
					"attributes":{
						"POSITION":8,
						"NORMAL":9,
						"TEXCOORD_0":10
					},
					"indices":11,
					"material":2
				},
				{
					"attributes":{
						"POSITION":12,
						"NORMAL":13,
						"TEXCOORD_0":14
					},
					"indices":15,
					"material":3
				},
				{
					"attributes":{
						"POSITION":16,
						"NORMAL":17,
						"TEXCOORD_0":18
					},
					"indices":19,
					"material":4
				},
				{
					"attributes":{
						"POSITION":20,
						"NORMAL":21,
						"TEXCOORD_0":22
					},
					"indices":23,
					"material":5
				},
				{
					"attributes":{
						"POSITION":24,
						"NORMAL":25,
						"TEXCOORD_0":26
					},
					"indices":27,
					"material":6
				},
				{
					"attributes":{
						"POSITION":28,
						"NORMAL":29,
						"TEXCOORD_0":30
					},
					"indices":31,
					"material":7
				},
				{
					"attributes":{
						"POSITION":32,
						"NORMAL":33,
						"TEXCOORD_0":34
					},
					"indices":35
				},
				{
					"attributes":{
						"POSITION":36,
						"NORMAL":37,
						"TEXCOORD_0":38
					},
					"indices":39,
					"material":8
				},
				{
					"attributes":{
						"POSITION":40,
						"NORMAL":41,
						"TEXCOORD_0":42
					},
					"indices":43,
					"material":9
				},
				{
					"attributes":{
						"POSITION":44,
						"NORMAL":45,
						"TEXCOORD_0":46
					},
					"indices":47,
					"material":10
				},
				{
					"attributes":{
						"POSITION":48,
						"NORMAL":49,
						"TEXCOORD_0":50
					},
					"indices":51,
					"material":11
				},
				{
					"attributes":{
						"POSITION":52,
						"NORMAL":53,
						"TEXCOORD_0":54
					},
					"indices":55,
					"material":12
				}
			]
		}
	],
	"accessors":[
		{
			"bufferView":0,
			"componentType":5126,
			"count":3306,
			"max":[
				1.2013108730316162,
				-0.2274736762046814,
				0.7218364477157593
			],
			"min":[
				-2.270064115524292,
				-1.8764187097549438,
				-0.7218362092971802
			],
			"type":"VEC3"
		},
		{
			"bufferView":1,
			"componentType":5126,
			"count":3306,
			"type":"VEC3"
		},
		{
			"bufferView":2,
			"componentType":5126,
			"count":3306,
			"type":"VEC2"
		},
		{
			"bufferView":3,
			"componentType":5123,
			"count":9378,
			"type":"SCALAR"
		},
		{
			"bufferView":4,
			"componentType":5126,
			"count":18652,
			"max":[
				1.3951606750488281,
				-0.14314359426498413,
				1.006903886795044
			],
			"min":[
				-2.440326690673828,
				-1.8552124500274658,
				-1.006913423538208
			],
			"type":"VEC3"
		},
		{
			"bufferView":5,
			"componentType":5126,
			"count":18652,
			"type":"VEC3"
		},
		{
			"bufferView":6,
			"componentType":5126,
			"count":18652,
			"type":"VEC2"
		},
		{
			"bufferView":7,
			"componentType":5123,
			"count":84276,
			"type":"SCALAR"
		},
		{
			"bufferView":8,
			"componentType":5126,
			"count":211,
			"max":[
				1.3955013751983643,
				-1.191403865814209,
				0.7218354344367981
			],
			"min":[
				1.2913954257965088,
				-1.4910435676574707,
				-0.7218363881111145
			],
			"type":"VEC3"
		},
		{
			"bufferView":9,
			"componentType":5126,
			"count":211,
			"type":"VEC3"
		},
		{
			"bufferView":10,
			"componentType":5126,
			"count":211,
			"type":"VEC2"
		},
		{
			"bufferView":11,
			"componentType":5123,
			"count":1128,
			"type":"SCALAR"
		},
		{
			"bufferView":12,
			"componentType":5126,
			"count":28,
			"max":[
				1.2013108730316162,
				-1.1573190689086914,
				0.7218364477157593
			],
			"min":[
				-1.8885676860809326,
				-1.2512892484664917,
				-0.7218362092971802
			],
			"type":"VEC3"
		},
		{
			"bufferView":13,
			"componentType":5126,
			"count":28,
			"type":"VEC3"
		},
		{
			"bufferView":14,
			"componentType":5126,
			"count":28,
			"type":"VEC2"
		},
		{
			"bufferView":15,
			"componentType":5123,
			"count":48,
			"type":"SCALAR"
		},
		{
			"bufferView":16,
			"componentType":5126,
			"count":2931,
			"max":[
				1.2013108730316162,
				-0.20871537923812866,
				0.7218364477157593
			],
			"min":[
				-2.175143003463745,
				-1.4328441619873047,
				-0.7218362092971802
			],
			"type":"VEC3"
		},
		{
			"bufferView":17,
			"componentType":5126,
			"count":2931,
			"type":"VEC3"
		},
		{
			"bufferView":18,
			"componentType":5126,
			"count":2931,
			"type":"VEC2"
		},
		{
			"bufferView":19,
			"componentType":5123,
			"count":14394,
			"type":"SCALAR"
		},
		{
			"bufferView":20,
			"componentType":5126,
			"count":4059,
			"max":[
				1.4874341487884521,
				-1.029975414276123,
				0.877897322177887
			],
			"min":[
				-2.2829811573028564,
				-2.041775941848755,
				-0.8778976202011108
			],
			"type":"VEC3"
		},
		{
			"bufferView":21,
			"componentType":5126,
			"count":4059,
			"type":"VEC3"
		},
		{
			"bufferView":22,
			"componentType":5126,
			"count":4059,
			"type":"VEC2"
		},
		{
			"bufferView":23,
			"componentType":5123,
			"count":21450,
			"type":"SCALAR"
		},
		{
			"bufferView":24,
			"componentType":5126,
			"count":14173,
			"max":[
				1.3600945472717285,
				-0.041969120502471924,
				0.9024878144264221
			],
			"min":[
				-2.270064115524292,
				-2.050449848175049,
				-0.9024871587753296
			],
			"type":"VEC3"
		},
		{
			"bufferView":25,
			"componentType":5126,
			"count":14173,
			"type":"VEC3"
		},
		{
			"bufferView":26,
			"componentType":5126,
			"count":14173,
			"type":"VEC2"
		},
		{
			"bufferView":27,
			"componentType":5123,
			"count":68892,
			"type":"SCALAR"
		},
		{
			"bufferView":28,
			"componentType":5126,
			"count":416,
			"max":[
				1.201317548751831,
				-0.22781145572662354,
				0.46016618609428406
			],
			"min":[
				0.9157492518424988,
				-1.0167039632797241,
				-0.4600505530834198
			],
			"type":"VEC3"
		},
		{
			"bufferView":29,
			"componentType":5126,
			"count":416,
			"type":"VEC3"
		},
		{
			"bufferView":30,
			"componentType":5126,
			"count":416,
			"type":"VEC2"
		},
		{
			"bufferView":31,
			"componentType":5123,
			"count":660,
			"type":"SCALAR"
		},
		{
			"bufferView":32,
			"componentType":5126,
			"count":324,
			"max":[
				-1.0508767366409302,
				-0.6331302523612976,
				0.04906307905912399
			],
			"min":[
				-1.1958725452423096,
				-0.7969114780426025,
				-0.021403320133686066
			],
			"type":"VEC3"
		},
		{
			"bufferView":33,
			"componentType":5126,
			"count":324,
			"type":"VEC3"
		},
		{
			"bufferView":34,
			"componentType":5126,
			"count":324,
			"type":"VEC2"
		},
		{
			"bufferView":35,
			"componentType":5123,
			"count":1524,
			"type":"SCALAR"
		},
		{
			"bufferView":36,
			"componentType":5126,
			"count":1245,
			"max":[
				-1.9640711545944214,
				-1.4335911273956299,
				0.3649600148200989
			],
			"min":[
				-2.3208320140838623,
				-1.877443552017212,
				-0.3649587631225586
			],
			"type":"VEC3"
		},
		{
			"bufferView":37,
			"componentType":5126,
			"count":1245,
			"type":"VEC3"
		},
		{
			"bufferView":38,
			"componentType":5126,
			"count":1245,
			"type":"VEC2"
		},
		{
			"bufferView":39,
			"componentType":5123,
			"count":5832,
			"type":"SCALAR"
		},
		{
			"bufferView":40,
			"componentType":5126,
			"count":325,
			"max":[
				-1.9792473316192627,
				-1.1132367849349976,
				0.721836507320404
			],
			"min":[
				-2.2829811573028564,
				-1.4935829639434814,
				-0.721835196018219
			],
			"type":"VEC3"
		},
		{
			"bufferView":41,
			"componentType":5126,
			"count":325,
			"type":"VEC3"
		},
		{
			"bufferView":42,
			"componentType":5126,
			"count":325,
			"type":"VEC2"
		},
		{
			"bufferView":43,
			"componentType":5123,
			"count":1704,
			"type":"SCALAR"
		},
		{
			"bufferView":44,
			"componentType":5126,
			"count":19900,
			"max":[
				1.201179027557373,
				-1.8774322271347046,
				0.33214837312698364
			],
			"min":[
				-1.8862881660461426,
				-1.9955370426177979,
				-0.3302607834339142
			],
			"type":"VEC3"
		},
		{
			"bufferView":45,
			"componentType":5126,
			"count":19900,
			"type":"VEC3"
		},
		{
			"bufferView":46,
			"componentType":5126,
			"count":19900,
			"type":"VEC2"
		},
		{
			"bufferView":47,
			"componentType":5123,
			"count":34692,
			"type":"SCALAR"
		},
		{
			"bufferView":48,
			"componentType":5126,
			"count":16843,
			"max":[
				-0.262384831905365,
				-0.5098927617073059,
				0.346393883228302
			],
			"min":[
				-0.6755058765411377,
				-1.0303908586502075,
				-0.35343924164772034
			],
			"type":"VEC3"
		},
		{
			"bufferView":49,
			"componentType":5126,
			"count":16843,
			"type":"VEC3"
		},
		{
			"bufferView":50,
			"componentType":5126,
			"count":16843,
			"type":"VEC2"
		},
		{
			"bufferView":51,
			"componentType":5123,
			"count":28242,
			"type":"SCALAR"
		},
		{
			"bufferView":52,
			"componentType":5126,
			"count":26112,
			"max":[
				-1.2773795127868652,
				-0.8609306812286377,
				0.5863336324691772
			],
			"min":[
				-1.472324252128601,
				-0.9156883955001831,
				-0.5911303758621216
			],
			"type":"VEC3"
		},
		{
			"bufferView":53,
			"componentType":5126,
			"count":26112,
			"type":"VEC3"
		},
		{
			"bufferView":54,
			"componentType":5126,
			"count":26112,
			"type":"VEC2"
		},
		{
			"bufferView":55,
			"componentType":5123,
			"count":39888,
			"type":"SCALAR"
		},
		{
			"bufferView":56,
			"componentType":5126,
			"count":2,
			"max":[
				8.333333333333334
			],
			"min":[
				0
			],
			"type":"SCALAR"
		},
		{
			"bufferView":57,
			"componentType":5126,
			"count":2,
			"type":"VEC3"
		},
		{
			"bufferView":58,
			"componentType":5126,
			"count":201,
			"max":[
				8.333333333333334
			],
			"min":[
				0
			],
			"type":"SCALAR"
		},
		{
			"bufferView":59,
			"componentType":5126,
			"count":201,
			"type":"VEC4"
		},
		{
			"bufferView":60,
			"componentType":5126,
			"count":2,
			"type":"VEC3"
		}
	],
	"bufferViews":[
		{
			"buffer":0,
			"byteLength":39672,
			"byteOffset":0,
			"target":34962
		},
		{
			"buffer":0,
			"byteLength":39672,
			"byteOffset":39672,
			"target":34962
		},
		{
			"buffer":0,
			"byteLength":26448,
			"byteOffset":79344,
			"target":34962
		},
		{
			"buffer":0,
			"byteLength":18756,
			"byteOffset":105792,
			"target":34963
		},
		{
			"buffer":0,
			"byteLength":223824,
			"byteOffset":124548,
			"target":34962
		},
		{
			"buffer":0,
			"byteLength":223824,
			"byteOffset":348372,
			"target":34962
		},
		{
			"buffer":0,
			"byteLength":149216,
			"byteOffset":572196,
			"target":34962
		},
		{
			"buffer":0,
			"byteLength":168552,
			"byteOffset":721412,
			"target":34963
		},
		{
			"buffer":0,
			"byteLength":2532,
			"byteOffset":889964,
			"target":34962
		},
		{
			"buffer":0,
			"byteLength":2532,
			"byteOffset":892496,
			"target":34962
		},
		{
			"buffer":0,
			"byteLength":1688,
			"byteOffset":895028,
			"target":34962
		},
		{
			"buffer":0,
			"byteLength":2256,
			"byteOffset":896716,
			"target":34963
		},
		{
			"buffer":0,
			"byteLength":336,
			"byteOffset":898972,
			"target":34962
		},
		{
			"buffer":0,
			"byteLength":336,
			"byteOffset":899308,
			"target":34962
		},
		{
			"buffer":0,
			"byteLength":224,
			"byteOffset":899644,
			"target":34962
		},
		{
			"buffer":0,
			"byteLength":96,
			"byteOffset":899868,
			"target":34963
		},
		{
			"buffer":0,
			"byteLength":35172,
			"byteOffset":899964,
			"target":34962
		},
		{
			"buffer":0,
			"byteLength":35172,
			"byteOffset":935136,
			"target":34962
		},
		{
			"buffer":0,
			"byteLength":23448,
			"byteOffset":970308,
			"target":34962
		},
		{
			"buffer":0,
			"byteLength":28788,
			"byteOffset":993756,
			"target":34963
		},
		{
			"buffer":0,
			"byteLength":48708,
			"byteOffset":1022544,
			"target":34962
		},
		{
			"buffer":0,
			"byteLength":48708,
			"byteOffset":1071252,
			"target":34962
		},
		{
			"buffer":0,
			"byteLength":32472,
			"byteOffset":1119960,
			"target":34962
		},
		{
			"buffer":0,
			"byteLength":42900,
			"byteOffset":1152432,
			"target":34963
		},
		{
			"buffer":0,
			"byteLength":170076,
			"byteOffset":1195332,
			"target":34962
		},
		{
			"buffer":0,
			"byteLength":170076,
			"byteOffset":1365408,
			"target":34962
		},
		{
			"buffer":0,
			"byteLength":113384,
			"byteOffset":1535484,
			"target":34962
		},
		{
			"buffer":0,
			"byteLength":137784,
			"byteOffset":1648868,
			"target":34963
		},
		{
			"buffer":0,
			"byteLength":4992,
			"byteOffset":1786652,
			"target":34962
		},
		{
			"buffer":0,
			"byteLength":4992,
			"byteOffset":1791644,
			"target":34962
		},
		{
			"buffer":0,
			"byteLength":3328,
			"byteOffset":1796636,
			"target":34962
		},
		{
			"buffer":0,
			"byteLength":1320,
			"byteOffset":1799964,
			"target":34963
		},
		{
			"buffer":0,
			"byteLength":3888,
			"byteOffset":1801284,
			"target":34962
		},
		{
			"buffer":0,
			"byteLength":3888,
			"byteOffset":1805172,
			"target":34962
		},
		{
			"buffer":0,
			"byteLength":2592,
			"byteOffset":1809060,
			"target":34962
		},
		{
			"buffer":0,
			"byteLength":3048,
			"byteOffset":1811652,
			"target":34963
		},
		{
			"buffer":0,
			"byteLength":14940,
			"byteOffset":1814700,
			"target":34962
		},
		{
			"buffer":0,
			"byteLength":14940,
			"byteOffset":1829640,
			"target":34962
		},
		{
			"buffer":0,
			"byteLength":9960,
			"byteOffset":1844580,
			"target":34962
		},
		{
			"buffer":0,
			"byteLength":11664,
			"byteOffset":1854540,
			"target":34963
		},
		{
			"buffer":0,
			"byteLength":3900,
			"byteOffset":1866204,
			"target":34962
		},
		{
			"buffer":0,
			"byteLength":3900,
			"byteOffset":1870104,
			"target":34962
		},
		{
			"buffer":0,
			"byteLength":2600,
			"byteOffset":1874004,
			"target":34962
		},
		{
			"buffer":0,
			"byteLength":3408,
			"byteOffset":1876604,
			"target":34963
		},
		{
			"buffer":0,
			"byteLength":238800,
			"byteOffset":1880012,
			"target":34962
		},
		{
			"buffer":0,
			"byteLength":238800,
			"byteOffset":2118812,
			"target":34962
		},
		{
			"buffer":0,
			"byteLength":159200,
			"byteOffset":2357612,
			"target":34962
		},
		{
			"buffer":0,
			"byteLength":69384,
			"byteOffset":2516812,
			"target":34963
		},
		{
			"buffer":0,
			"byteLength":202116,
			"byteOffset":2586196,
			"target":34962
		},
		{
			"buffer":0,
			"byteLength":202116,
			"byteOffset":2788312,
			"target":34962
		},
		{
			"buffer":0,
			"byteLength":134744,
			"byteOffset":2990428,
			"target":34962
		},
		{
			"buffer":0,
			"byteLength":56484,
			"byteOffset":3125172,
			"target":34963
		},
		{
			"buffer":0,
			"byteLength":313344,
			"byteOffset":3181656,
			"target":34962
		},
		{
			"buffer":0,
			"byteLength":313344,
			"byteOffset":3495000,
			"target":34962
		},
		{
			"buffer":0,
			"byteLength":208896,
			"byteOffset":3808344,
			"target":34962
		},
		{
			"buffer":0,
			"byteLength":79776,
			"byteOffset":4017240,
			"target":34963
		},
		{
			"buffer":0,
			"byteLength":8,
			"byteOffset":4097016
		},
		{
			"buffer":0,
			"byteLength":24,
			"byteOffset":4097024
		},
		{
			"buffer":0,
			"byteLength":804,
			"byteOffset":4097048
		},
		{
			"buffer":0,
			"byteLength":3216,
			"byteOffset":4097852
		},
		{
			"buffer":0,
			"byteLength":24,
			"byteOffset":4101068
		}
	],
	"buffers":[
		{
			"byteLength":4101092,
			"uri":"Chassis.bin"
		}
	]
}
